<mxfile host="app.diagrams.net" agent="Mozilla/5.0 (Windows NT 10.0; Win64; x64) AppleWebKit/537.36 (KHTML, like Gecko) Chrome/128.0.0.0 Safari/537.36 OPR/114.0.0.0" version="24.8.4">
  <diagram name="Sayfa -1" id="jT1YEbJTxfbzBxfDlOiq">
    <mxGraphModel dx="1380" dy="738" grid="1" gridSize="10" guides="1" tooltips="1" connect="1" arrows="1" fold="1" page="1" pageScale="1" pageWidth="827" pageHeight="1169" math="0" shadow="0">
      <root>
        <mxCell id="0" />
        <mxCell id="1" parent="0" />
        <mxCell id="JbSgCRdc3KRAPNIkep4G-1" value="&lt;u&gt;:Advisor&lt;/u&gt;" style="shape=umlActor;verticalLabelPosition=bottom;verticalAlign=top;html=1;outlineConnect=0;" vertex="1" parent="1">
          <mxGeometry x="121" y="40" width="30" height="60" as="geometry" />
        </mxCell>
        <mxCell id="JbSgCRdc3KRAPNIkep4G-6" value="&lt;u&gt;:System&lt;/u&gt;" style="whiteSpace=wrap;html=1;align=center;" vertex="1" parent="1">
          <mxGeometry x="321" y="100" width="100" height="30" as="geometry" />
        </mxCell>
        <mxCell id="JbSgCRdc3KRAPNIkep4G-13" value="" style="endArrow=none;html=1;rounded=0;dashed=1;" edge="1" parent="1" source="JbSgCRdc3KRAPNIkep4G-76">
          <mxGeometry relative="1" as="geometry">
            <mxPoint x="371" y="140" as="sourcePoint" />
            <mxPoint x="371" y="680" as="targetPoint" />
          </mxGeometry>
        </mxCell>
        <mxCell id="JbSgCRdc3KRAPNIkep4G-14" value="" style="resizable=0;html=1;whiteSpace=wrap;align=right;verticalAlign=bottom;" connectable="0" vertex="1" parent="JbSgCRdc3KRAPNIkep4G-13">
          <mxGeometry x="1" relative="1" as="geometry" />
        </mxCell>
        <mxCell id="JbSgCRdc3KRAPNIkep4G-24" value="" style="endArrow=none;html=1;rounded=0;dashed=1;" edge="1" parent="1" source="JbSgCRdc3KRAPNIkep4G-56">
          <mxGeometry relative="1" as="geometry">
            <mxPoint x="141" y="120" as="sourcePoint" />
            <mxPoint x="141" y="670" as="targetPoint" />
          </mxGeometry>
        </mxCell>
        <mxCell id="JbSgCRdc3KRAPNIkep4G-25" value="" style="resizable=0;html=1;whiteSpace=wrap;align=right;verticalAlign=bottom;" connectable="0" vertex="1" parent="JbSgCRdc3KRAPNIkep4G-24">
          <mxGeometry x="1" relative="1" as="geometry" />
        </mxCell>
        <mxCell id="JbSgCRdc3KRAPNIkep4G-26" value="" style="edgeStyle=none;orthogonalLoop=1;jettySize=auto;html=1;rounded=0;dashed=1;" edge="1" parent="1">
          <mxGeometry width="100" relative="1" as="geometry">
            <mxPoint x="371" y="230" as="sourcePoint" />
            <mxPoint x="150" y="230" as="targetPoint" />
            <Array as="points" />
          </mxGeometry>
        </mxCell>
        <mxCell id="JbSgCRdc3KRAPNIkep4G-28" value="IsAuthorized()" style="text;html=1;align=center;verticalAlign=middle;resizable=0;points=[];autosize=1;strokeColor=none;fillColor=none;" vertex="1" parent="1">
          <mxGeometry x="206" y="210" width="100" height="30" as="geometry" />
        </mxCell>
        <mxCell id="JbSgCRdc3KRAPNIkep4G-32" value="" style="endArrow=classic;html=1;rounded=0;" edge="1" parent="1">
          <mxGeometry width="50" height="50" relative="1" as="geometry">
            <mxPoint x="147" y="200" as="sourcePoint" />
            <mxPoint x="371" y="200" as="targetPoint" />
          </mxGeometry>
        </mxCell>
        <mxCell id="JbSgCRdc3KRAPNIkep4G-33" value="login()" style="text;html=1;align=center;verticalAlign=middle;resizable=0;points=[];autosize=1;strokeColor=none;fillColor=none;" vertex="1" parent="1">
          <mxGeometry x="221" y="178" width="60" height="30" as="geometry" />
        </mxCell>
        <mxCell id="JbSgCRdc3KRAPNIkep4G-36" value="" style="endArrow=classic;html=1;rounded=0;" edge="1" parent="1">
          <mxGeometry width="50" height="50" relative="1" as="geometry">
            <mxPoint x="151" y="287" as="sourcePoint" />
            <mxPoint x="371" y="287.17" as="targetPoint" />
          </mxGeometry>
        </mxCell>
        <mxCell id="JbSgCRdc3KRAPNIkep4G-37" value="checkAllRequest()" style="text;html=1;align=center;verticalAlign=middle;resizable=0;points=[];autosize=1;strokeColor=none;fillColor=none;" vertex="1" parent="1">
          <mxGeometry x="181" y="258" width="120" height="30" as="geometry" />
        </mxCell>
        <mxCell id="JbSgCRdc3KRAPNIkep4G-38" value="" style="edgeStyle=none;orthogonalLoop=1;jettySize=auto;html=1;rounded=0;dashed=1;entryX=1.338;entryY=0.398;entryDx=0;entryDy=0;entryPerimeter=0;" edge="1" parent="1" target="JbSgCRdc3KRAPNIkep4G-56">
          <mxGeometry width="100" relative="1" as="geometry">
            <mxPoint x="366" y="318" as="sourcePoint" />
            <mxPoint x="136" y="318" as="targetPoint" />
            <Array as="points" />
          </mxGeometry>
        </mxCell>
        <mxCell id="JbSgCRdc3KRAPNIkep4G-39" value="requests" style="text;html=1;align=center;verticalAlign=middle;resizable=0;points=[];autosize=1;strokeColor=none;fillColor=none;" vertex="1" parent="1">
          <mxGeometry x="216" y="288" width="70" height="30" as="geometry" />
        </mxCell>
        <mxCell id="JbSgCRdc3KRAPNIkep4G-40" value="" style="endArrow=classic;html=1;rounded=0;exitX=1.5;exitY=0.539;exitDx=0;exitDy=0;exitPerimeter=0;" edge="1" parent="1">
          <mxGeometry width="50" height="50" relative="1" as="geometry">
            <mxPoint x="151" y="439.84800000000007" as="sourcePoint" />
            <mxPoint x="360" y="440" as="targetPoint" />
          </mxGeometry>
        </mxCell>
        <mxCell id="JbSgCRdc3KRAPNIkep4G-41" value="&lt;u&gt;:Student&lt;/u&gt;" style="whiteSpace=wrap;html=1;align=center;" vertex="1" parent="1">
          <mxGeometry x="491" y="100" width="100" height="30" as="geometry" />
        </mxCell>
        <mxCell id="JbSgCRdc3KRAPNIkep4G-42" value="" style="endArrow=none;html=1;rounded=0;dashed=1;" edge="1" parent="1">
          <mxGeometry relative="1" as="geometry">
            <mxPoint x="540.58" y="140" as="sourcePoint" />
            <mxPoint x="541" y="680" as="targetPoint" />
          </mxGeometry>
        </mxCell>
        <mxCell id="JbSgCRdc3KRAPNIkep4G-43" value="" style="resizable=0;html=1;whiteSpace=wrap;align=right;verticalAlign=bottom;" connectable="0" vertex="1" parent="JbSgCRdc3KRAPNIkep4G-42">
          <mxGeometry x="1" relative="1" as="geometry" />
        </mxCell>
        <mxCell id="JbSgCRdc3KRAPNIkep4G-46" value="Alt" style="shape=umlFrame;whiteSpace=wrap;html=1;pointerEvents=0;" vertex="1" parent="1">
          <mxGeometry x="71" y="380" width="500" height="200" as="geometry" />
        </mxCell>
        <mxCell id="JbSgCRdc3KRAPNIkep4G-48" value="" style="endArrow=none;dashed=1;html=1;rounded=0;entryX=0.995;entryY=0.496;entryDx=0;entryDy=0;entryPerimeter=0;exitX=-0.002;exitY=0.5;exitDx=0;exitDy=0;exitPerimeter=0;" edge="1" parent="1" source="JbSgCRdc3KRAPNIkep4G-46" target="JbSgCRdc3KRAPNIkep4G-46">
          <mxGeometry width="50" height="50" relative="1" as="geometry">
            <mxPoint x="71" y="560" as="sourcePoint" />
            <mxPoint x="121" y="510" as="targetPoint" />
            <Array as="points">
              <mxPoint x="291" y="480" />
            </Array>
          </mxGeometry>
        </mxCell>
        <mxCell id="JbSgCRdc3KRAPNIkep4G-49" value="[canStudentEnroll]" style="text;html=1;align=center;verticalAlign=middle;resizable=1;points=[];autosize=1;strokeColor=none;fillColor=none;shadow=0;glass=0;rounded=0;movable=1;rotatable=1;deletable=1;editable=1;locked=0;connectable=1;" vertex="1" parent="1">
          <mxGeometry x="86" y="408" width="120" height="30" as="geometry" />
        </mxCell>
        <mxCell id="JbSgCRdc3KRAPNIkep4G-55" value="[else]" style="text;html=1;align=center;verticalAlign=middle;resizable=0;points=[];autosize=1;strokeColor=none;fillColor=none;" vertex="1" parent="1">
          <mxGeometry x="111" y="490" width="50" height="30" as="geometry" />
        </mxCell>
        <mxCell id="JbSgCRdc3KRAPNIkep4G-59" value="" style="endArrow=none;html=1;rounded=0;dashed=1;" edge="1" parent="1" target="JbSgCRdc3KRAPNIkep4G-56">
          <mxGeometry relative="1" as="geometry">
            <mxPoint x="141" y="120" as="sourcePoint" />
            <mxPoint x="141" y="670" as="targetPoint" />
            <Array as="points">
              <mxPoint x="141" y="150" />
            </Array>
          </mxGeometry>
        </mxCell>
        <mxCell id="JbSgCRdc3KRAPNIkep4G-56" value="" style="rounded=0;whiteSpace=wrap;html=1;fillColor=none;strokeColor=default;" vertex="1" parent="1">
          <mxGeometry x="136" y="157" width="10" height="403" as="geometry" />
        </mxCell>
        <mxCell id="JbSgCRdc3KRAPNIkep4G-61" value="approveRequest()" style="text;html=1;align=center;verticalAlign=middle;resizable=0;points=[];autosize=1;strokeColor=none;fillColor=none;" vertex="1" parent="1">
          <mxGeometry x="191" y="418" width="120" height="30" as="geometry" />
        </mxCell>
        <mxCell id="JbSgCRdc3KRAPNIkep4G-62" value="" style="endArrow=classic;html=1;rounded=0;exitX=1.5;exitY=0.539;exitDx=0;exitDy=0;exitPerimeter=0;" edge="1" parent="1">
          <mxGeometry width="50" height="50" relative="1" as="geometry">
            <mxPoint x="151" y="522.5799999999999" as="sourcePoint" />
            <mxPoint x="360" y="523" as="targetPoint" />
          </mxGeometry>
        </mxCell>
        <mxCell id="JbSgCRdc3KRAPNIkep4G-63" value="denyRequest()" style="text;html=1;align=center;verticalAlign=middle;resizable=0;points=[];autosize=1;strokeColor=none;fillColor=none;" vertex="1" parent="1">
          <mxGeometry x="201" y="498" width="100" height="30" as="geometry" />
        </mxCell>
        <mxCell id="JbSgCRdc3KRAPNIkep4G-66" value="" style="endArrow=none;html=1;rounded=0;dashed=1;" edge="1" parent="1" source="JbSgCRdc3KRAPNIkep4G-64" target="JbSgCRdc3KRAPNIkep4G-65">
          <mxGeometry relative="1" as="geometry">
            <mxPoint x="371" y="140" as="sourcePoint" />
            <mxPoint x="371" y="680" as="targetPoint" />
          </mxGeometry>
        </mxCell>
        <mxCell id="JbSgCRdc3KRAPNIkep4G-65" value="" style="rounded=0;whiteSpace=wrap;html=1;" vertex="1" parent="1">
          <mxGeometry x="366" y="282" width="10" height="42" as="geometry" />
        </mxCell>
        <mxCell id="JbSgCRdc3KRAPNIkep4G-70" value="" style="endArrow=none;html=1;rounded=0;dashed=1;" edge="1" parent="1" target="JbSgCRdc3KRAPNIkep4G-64">
          <mxGeometry relative="1" as="geometry">
            <mxPoint x="371" y="140" as="sourcePoint" />
            <mxPoint x="371" y="282" as="targetPoint" />
          </mxGeometry>
        </mxCell>
        <mxCell id="JbSgCRdc3KRAPNIkep4G-64" value="" style="rounded=0;whiteSpace=wrap;html=1;" vertex="1" parent="1">
          <mxGeometry x="366" y="198" width="10" height="42" as="geometry" />
        </mxCell>
        <mxCell id="JbSgCRdc3KRAPNIkep4G-71" value="" style="endArrow=classic;html=1;rounded=0;" edge="1" parent="1">
          <mxGeometry width="50" height="50" relative="1" as="geometry">
            <mxPoint x="380" y="440" as="sourcePoint" />
            <mxPoint x="541" y="440" as="targetPoint" />
          </mxGeometry>
        </mxCell>
        <mxCell id="JbSgCRdc3KRAPNIkep4G-72" value="sendNotification()" style="text;html=1;align=center;verticalAlign=middle;resizable=0;points=[];autosize=1;strokeColor=none;fillColor=none;" vertex="1" parent="1">
          <mxGeometry x="391" y="418" width="120" height="30" as="geometry" />
        </mxCell>
        <mxCell id="JbSgCRdc3KRAPNIkep4G-73" value="" style="endArrow=classic;html=1;rounded=0;" edge="1" parent="1">
          <mxGeometry width="50" height="50" relative="1" as="geometry">
            <mxPoint x="380" y="520" as="sourcePoint" />
            <mxPoint x="541" y="520" as="targetPoint" />
          </mxGeometry>
        </mxCell>
        <mxCell id="JbSgCRdc3KRAPNIkep4G-74" value="sendNotification()" style="text;html=1;align=center;verticalAlign=middle;resizable=0;points=[];autosize=1;strokeColor=none;fillColor=none;" vertex="1" parent="1">
          <mxGeometry x="391" y="498" width="120" height="30" as="geometry" />
        </mxCell>
        <mxCell id="JbSgCRdc3KRAPNIkep4G-77" value="" style="endArrow=none;html=1;rounded=0;dashed=1;" edge="1" parent="1" source="JbSgCRdc3KRAPNIkep4G-84" target="JbSgCRdc3KRAPNIkep4G-76">
          <mxGeometry relative="1" as="geometry">
            <mxPoint x="370" y="324" as="sourcePoint" />
            <mxPoint x="371" y="716" as="targetPoint" />
          </mxGeometry>
        </mxCell>
        <mxCell id="JbSgCRdc3KRAPNIkep4G-76" value="" style="rounded=0;whiteSpace=wrap;html=1;" vertex="1" parent="1">
          <mxGeometry x="366" y="599" width="10" height="40" as="geometry" />
        </mxCell>
        <mxCell id="JbSgCRdc3KRAPNIkep4G-79" value="" style="endArrow=classic;html=1;rounded=0;exitX=1;exitY=0.25;exitDx=0;exitDy=0;entryX=1;entryY=0.75;entryDx=0;entryDy=0;" edge="1" parent="1" source="JbSgCRdc3KRAPNIkep4G-76" target="JbSgCRdc3KRAPNIkep4G-76">
          <mxGeometry width="50" height="50" relative="1" as="geometry">
            <mxPoint x="400" y="639" as="sourcePoint" />
            <mxPoint x="390" y="630" as="targetPoint" />
            <Array as="points">
              <mxPoint x="410" y="609" />
              <mxPoint x="410" y="630" />
            </Array>
          </mxGeometry>
        </mxCell>
        <mxCell id="JbSgCRdc3KRAPNIkep4G-80" value="saveDecision()" style="text;html=1;align=center;verticalAlign=middle;resizable=0;points=[];autosize=1;strokeColor=none;fillColor=none;" vertex="1" parent="1">
          <mxGeometry x="414" y="604" width="100" height="30" as="geometry" />
        </mxCell>
        <mxCell id="JbSgCRdc3KRAPNIkep4G-81" value="Loop" style="shape=umlFrame;whiteSpace=wrap;html=1;pointerEvents=0;" vertex="1" parent="1">
          <mxGeometry x="30" y="330" width="560" height="320" as="geometry" />
        </mxCell>
        <mxCell id="JbSgCRdc3KRAPNIkep4G-82" value="[isThereAnyRequest]" style="text;html=1;align=center;verticalAlign=middle;resizable=0;points=[];autosize=1;strokeColor=none;fillColor=none;" vertex="1" parent="1">
          <mxGeometry x="86" y="338" width="140" height="30" as="geometry" />
        </mxCell>
        <mxCell id="JbSgCRdc3KRAPNIkep4G-85" value="" style="endArrow=none;html=1;rounded=0;dashed=1;" edge="1" parent="1" target="JbSgCRdc3KRAPNIkep4G-84">
          <mxGeometry relative="1" as="geometry">
            <mxPoint x="370" y="324" as="sourcePoint" />
            <mxPoint x="371" y="599" as="targetPoint" />
          </mxGeometry>
        </mxCell>
        <mxCell id="JbSgCRdc3KRAPNIkep4G-84" value="" style="rounded=0;whiteSpace=wrap;html=1;" vertex="1" parent="1">
          <mxGeometry x="366" y="430" width="10" height="32" as="geometry" />
        </mxCell>
        <mxCell id="JbSgCRdc3KRAPNIkep4G-86" value="" style="rounded=0;whiteSpace=wrap;html=1;" vertex="1" parent="1">
          <mxGeometry x="366" y="510" width="10" height="32" as="geometry" />
        </mxCell>
        <mxCell id="JbSgCRdc3KRAPNIkep4G-87" value="Loop" style="shape=umlFrame;whiteSpace=wrap;html=1;pointerEvents=0;" vertex="1" parent="1">
          <mxGeometry x="103" y="150" width="296" height="99" as="geometry" />
        </mxCell>
        <mxCell id="JbSgCRdc3KRAPNIkep4G-88" value="[isAuthorized != 0]" style="text;html=1;align=center;verticalAlign=middle;resizable=0;points=[];autosize=1;strokeColor=none;fillColor=none;" vertex="1" parent="1">
          <mxGeometry x="100" y="178" width="120" height="30" as="geometry" />
        </mxCell>
      </root>
    </mxGraphModel>
  </diagram>
</mxfile>
